<?xml version="1.0" encoding="utf-8"?>
<!-- Generator: Adobe Illustrator 21.1.0, SVG Export Plug-In . SVG Version: 6.00 Build 0)  -->
<svg version="1.1" id="Capa_1" xmlns="http://www.w3.org/2000/svg" xmlns:xlink="http://www.w3.org/1999/xlink" x="0px" y="0px"
	 viewBox="0 0 44 41" style="enable-background:new 0 0 44 41;" xml:space="preserve">
<style type="text/css">
	.st0{fill:#006AFF;}
</style>
<title>prueba white</title>
<desc>Created with Sketch.</desc>
<g id="PAGE-1">
	<g id="INTERIOR-OPEN" transform="translate(-617.000000, -972.000000)">
		<g id="prueba-white" transform="translate(617.000000, 972.000000)">
			<path id="Fill-1" class="st0" d="M38.5,32.3L5.1,38.3l-1.1-4l18.4-5.8c0.4-0.1,0.6-0.4,0.7-0.8l4.1-16c0.1-0.3,0-0.7-0.2-1
				c-0.2-0.3-0.6-0.4-0.9-0.4L6.6,12.1c0.7-1,1.5-2,2.4-2.9c4.4-4.6,10.3-7,17-7c1.5,0,3.1,0.1,4.8,0.4c4.3,0.7,7.4,2.6,9.2,5.9
				C44.8,17.1,38.7,31.7,38.5,32.3 M5.2,14.4c0.1,0,0.2,0,0.4,0l19.1-1.6l-3.5,13.9L3.4,32.3l-0.5-2c0,0,0,0,0,0
				c-0.1-0.4-0.7-3.6-0.7-5.7C2.1,21.9,3.1,18.1,5.2,14.4 M31.1,0.4C29.4,0.1,27.7,0,26,0C18.7,0,12.3,2.7,7.5,7.7
				C2.4,13-0.1,20.2,0,24.6c0.1,2.3,0.7,5.7,0.8,6.1c0,0.1,0,0.2,0,0.2L3,39c0.3,0.9,1.1,1.6,2,1.6c0.1,0,0.2,0,0.4,0l33.5-6.1
				c0.7-0.1,1.3-0.6,1.6-1.3c0.3-0.7,6.7-16.2,1.5-25.8C39.8,3.5,36.2,1.2,31.1,0.4"/>
			<path id="Fill-4" class="st0" d="M14.4,17.9h4.2L17,23.5c-0.2,0.6,0.2,1.2,0.7,1.3c0.1,0,0.2,0,0.3,0c0.5,0,0.9-0.3,1-0.8l1.9-7
				c0.1-0.3,0-0.7-0.2-1c-0.2-0.3-0.5-0.4-0.9-0.4h-5.6c-0.6,0-1.1,0.5-1.1,1.1S13.8,17.9,14.4,17.9"/>
		</g>
	</g>
</g>
</svg>
