<?xml version="1.0" encoding="utf-8"?>
<!-- Generator: Adobe Illustrator 21.1.0, SVG Export Plug-In . SVG Version: 6.00 Build 0)  -->
<svg version="1.1" id="Capa_1" xmlns="http://www.w3.org/2000/svg" xmlns:xlink="http://www.w3.org/1999/xlink" x="0px" y="0px"
	 viewBox="0 0 27 36" style="enable-background:new 0 0 27 36;" xml:space="preserve">
<style type="text/css">
	.st0{opacity:0.8533;}
	.st1{fill:#006AFF;}
</style>
<title>calculator</title>
<desc>Created with Sketch.</desc>
<g id="PAGE-1" class="st0">
	<g id="INTERIOR-OPEN" transform="translate(-918.000000, -978.000000)">
		<g id="submenu" transform="translate(-10.000000, 945.000000)">
			<g id="localiza" transform="translate(928.000000, 33.000000)">
				<path id="Fill-4" class="st1" d="M13.5,17.2c-2.3,0-4.2-1.8-4.2-4.1S11.2,9,13.5,9c2.3,0,4.2,1.8,4.2,4.1S15.8,17.2,13.5,17.2
					 M13.5,6.5c-3.7,0-6.8,2.9-6.8,6.5c0,3.6,3,6.5,6.8,6.5c3.7,0,6.8-2.9,6.8-6.5C20.2,9.4,17.2,6.5,13.5,6.5 M22.7,18.9
					c-2.1,3.3-7,10.5-9.2,13.6c-2.2-3.1-7.1-10.3-9.2-13.6c-1.1-1.7-1.8-3.8-1.8-5.8c0-5.9,4.9-10.6,11-10.6c6.1,0,11,4.8,11,10.6
					C24.4,15.2,23.8,17.2,22.7,18.9L22.7,18.9z M13.5,0L13.5,0C6,0,0,5.9,0,13.1c0,2.5,0.8,5,2.2,7.1c2.7,4.3,10,14.8,10.3,15.2
					c0.4,0.6,1.2,0.7,1.8,0.3c0.1-0.1,0.3-0.2,0.4-0.3c0.3-0.4,7.6-10.9,10.3-15.2c1.4-2.1,2.1-4.6,2.1-7.1C27,5.9,21,0,13.5,0
					L13.5,0z"/>
			</g>
		</g>
	</g>
</g>
</svg>
