<?xml version="1.0" encoding="utf-8"?>
<!-- Generator: Adobe Illustrator 21.1.0, SVG Export Plug-In . SVG Version: 6.00 Build 0)  -->
<svg version="1.1" id="Capa_1" xmlns="http://www.w3.org/2000/svg" xmlns:xlink="http://www.w3.org/1999/xlink" x="0px" y="0px"
	 viewBox="0 0 31 42" style="enable-background:new 0 0 31 42;" xml:space="preserve">
<style type="text/css">
	.st0{opacity:0.8533;}
	.st1{fill:#006AFF;}
	.st2{fill:#FFFFFF;stroke:#006AFF;stroke-miterlimit:10;}
</style>
<title>calculator</title>
<desc>Created with Sketch.</desc>
<g id="PAGE-1" class="st0">
	<g id="INTERIOR-OPEN" transform="translate(-87.000000, -973.000000)">
		<g id="submenu" transform="translate(-10.000000, 945.000000)">
			<g id="calculator" transform="translate(97.000000, 28.000000)">
				<path id="Fill-1" class="st1" d="M29,39.5c0,0.1,0,0.1-0.1,0.1H2.1c-0.1,0-0.1,0-0.1-0.1V2.4c0-0.1,0-0.1,0.1-0.1h26.8
					c0.1,0,0.1,0,0.1,0.1V39.5z M28.9,0.4H2.1C0.9,0.4,0,1.3,0,2.4v37.1c0,1.1,0.9,2,2.1,2h26.8c1.1,0,2.1-0.9,2.1-2V2.4
					C30.9,1.3,30,0.4,28.9,0.4L28.9,0.4z"/>
				<polygon id="Fill-4" class="st2" points="4.9,15.2 26,15.2 26,5.1 4.9,5.1 				"/>
				<path id="Fill-6" class="st1" d="M25,21.6h-7.1c-0.2,0-0.3,0.2-0.3,0.3v1.2c0,0.2,0.2,0.3,0.3,0.3H25c0.2,0,0.3-0.2,0.3-0.3
					v-1.2C25.4,21.7,25.2,21.6,25,21.6"/>
				<path id="Fill-7" class="st1" d="M25,30.3h-7.1c-0.2,0-0.3,0.2-0.3,0.3v1.2c0,0.2,0.2,0.3,0.3,0.3H25c0.2,0,0.3-0.2,0.3-0.3
					v-1.2C25.4,30.4,25.2,30.3,25,30.3"/>
				<path id="Fill-8" class="st1" d="M25,34.1h-7.1c-0.2,0-0.3,0.2-0.3,0.3v1.2c0,0.2,0.2,0.3,0.3,0.3H25c0.2,0,0.3-0.2,0.3-0.3
					v-1.2C25.4,34.3,25.2,34.1,25,34.1"/>
				<path id="Fill-9" class="st1" d="M13,21.6h-2.6V19c0-0.2-0.2-0.3-0.3-0.3H8.8c-0.2,0-0.3,0.2-0.3,0.3v2.6H5.9
					c-0.2,0-0.3,0.2-0.3,0.3v1.2c0,0.2,0.2,0.3,0.3,0.3h2.6V26c0,0.2,0.2,0.3,0.3,0.3H10c0.2,0,0.3-0.2,0.3-0.3v-2.6H13
					c0.2,0,0.3-0.2,0.3-0.3v-1.2C13.4,21.7,13.2,21.6,13,21.6"/>
				<path id="Fill-10" class="st1" d="M12.6,30.8L11.7,30c-0.1-0.1-0.4-0.1-0.5,0l-1.8,1.8L7.6,30c-0.1-0.1-0.4-0.1-0.5,0l-0.9,0.9
					C6,31,6,31.2,6.2,31.3L8,33.2L6.2,35c-0.1,0.1-0.1,0.4,0,0.5L7,36.4c0.1,0.1,0.4,0.1,0.5,0l1.8-1.8l1.8,1.8
					c0.1,0.1,0.4,0.1,0.5,0l0.9-0.9c0.1-0.1,0.1-0.4,0-0.5l-1.8-1.8l1.8-1.8C12.8,31.2,12.8,31,12.6,30.8"/>
			</g>
		</g>
	</g>
</g>
</svg>
