<svg width="14" height="14" viewBox="0 0 14 14" fill="none" xmlns="http://www.w3.org/2000/svg">
<path fill-rule="evenodd" clip-rule="evenodd" d="M12.8395 6.68211C12.8395 3.72608 10.435 1.32154 7.47892 1.32154C4.52289 1.32154 2.11835 3.72608 2.11835 6.68211C2.11835 9.63814 4.52289 12.0427 7.47892 12.0427C10.435 12.0427 12.8395 9.63814 12.8395 6.68211ZM0.981262 6.68211C0.981262 3.09378 3.89059 0.184448 7.47892 0.184448C11.0673 0.184448 13.9766 3.09378 13.9766 6.68211C13.9766 10.2708 11.0673 13.1798 7.47892 13.1798C3.89059 13.1798 0.981262 10.2708 0.981262 6.68211ZM6.66674 3.02719H8.29115V4.65161H6.66674V3.02719ZM6.66674 6.27602H8.29115V10.3371H6.66674V6.27602Z" fill="#AF1523"/>
</svg>
